# xmcd
#
# Track frame offsets: 
#        150
#        16085
#        29102
#        47974
#        67055
#        87547
#        106589
#        120712
#        133818
#        148240
#        159041
#        176035
#
# Disc length: 2528 seconds
#
# Revision: 2
# Processed by: cddbd v1.5.2PL0 Copyright (c) Steve Scherf et al.
# Submitted via: ExactAudioCopy v1.3
#
DISCID=aa09de0c
DTITLE=Michel Jonasz - Les hommes sont toujours des enfants
DYEAR=2011
DGENRE=Variété Française
TTITLE0=Les Hommes Sont Toujours Des Enfants
TTITLE1=Avant
TTITLE2=Woman In Blue
TTITLE3=Paris By
TTITLE4=J'te Vois Dormir
TTITLE5=Est ce que J'retrouverai Ma Douce
TTITLE6=Hé Black
TTITLE7=Jesse Owens
TTITLE8=Les Bougies De Secours
TTITLE9=Les Souvenirs
TTITLE10=Mésange
TTITLE11=Tziganes
EXTD=
EXTT0=
EXTT1=
EXTT2=
EXTT3=
EXTT4=
EXTT5=
EXTT6=
EXTT7=
EXTT8=
EXTT9=
EXTT10=
EXTT11=
PLAYORDER=
